<?xml version="1.0" standalone="no"?>
<!DOCTYPE svg PUBLIC "-//W3C//DTD SVG 20010904//EN"
 "http://www.w3.org/TR/2001/REC-SVG-20010904/DTD/svg10.dtd">
<svg version="1.0" xmlns="http://www.w3.org/2000/svg"
 width="300.000000pt" height="300.000000pt" viewBox="0 0 300.000000 300.000000"
 preserveAspectRatio="xMidYMid meet">
<metadata>
Created by potrace 1.11, written by Peter Selinger 2001-2013
</metadata>
<g transform="translate(0.000000,300.000000) scale(0.100000,-0.100000)"
fill="#000000" stroke="none">
<path d="M1419 2736 c-2 -2 -25 -6 -51 -9 -27 -3 -87 -22 -135 -41 -127 -52
-233 -126 -354 -246 -31 -31 -78 -72 -106 -93 -68 -49 -141 -130 -160 -175
-20 -47 -19 -126 1 -173 l15 -36 88 19 c48 10 97 21 108 25 11 3 -12 -28 -54
-73 -41 -43 -94 -106 -119 -139 -47 -63 -117 -200 -127 -250 -32 -157 -36
-196 -30 -303 6 -125 15 -182 40 -257 39 -117 172 -323 262 -406 l46 -43 -32
-63 c-23 -43 -58 -86 -112 -137 -85 -80 -85 -86 -5 -86 73 0 179 68 222 142 5
9 24 24 42 35 l32 20 110 -44 c60 -24 142 -51 182 -59 76 -16 265 -22 353 -10
28 4 71 9 96 12 l47 5 45 -64 c57 -79 114 -119 165 -115 58 5 55 37 -11 129
-76 106 -77 110 -20 138 191 92 345 255 462 488 117 233 111 466 -20 726 -39
77 -127 211 -169 256 -20 21 -25 31 -13 26 41 -17 58 -11 77 30 48 97 27 204
-55 287 -27 27 -55 59 -63 70 -45 64 -221 228 -306 285 -111 75 -242 121 -363
128 -46 3 -86 3 -88 1z m226 -66 c121 -37 245 -116 375 -239 l65 -61 -71 31
c-39 17 -82 41 -95 53 -109 100 -240 175 -343 196 -166 34 -324 -11 -487 -136
-40 -32 -94 -63 -119 -71 l-45 -13 45 41 c65 59 195 143 270 174 131 55 276
64 405 25z m-54 -65 c66 -18 122 -46 198 -99 l63 -45 -59 0 c-74 1 -138 -27
-186 -80 l-34 -38 -18 33 c-19 36 -33 44 -88 51 -32 4 -42 0 -73 -31 -30 -30
-35 -41 -31 -68 7 -49 15 -64 43 -78 26 -14 28 -32 3 -35 -7 -1 -36 -5 -64 -9
-27 -3 -66 -9 -85 -12 l-35 -6 44 34 c38 28 66 48 79 55 7 3 -47 88 -73 115
-35 38 -80 60 -139 67 l-51 6 55 36 c130 86 218 117 334 117 37 0 90 -6 117
-13z m-378 -214 c20 -12 46 -36 58 -52 19 -27 19 -29 2 -31 -10 0 -22 -2 -28
-3 -5 0 -32 -5 -59 -9 -76 -12 -218 -61 -293 -102 -70 -37 -218 -138 -228
-154 -4 -6 -11 -10 -17 -10 -7 0 -9 22 -6 64 6 65 25 102 84 160 36 37 91 75
98 69 3 -4 6 -1 6 5 0 14 92 58 160 76 80 21 178 15 223 -13z m757 -16 c207
-92 310 -192 310 -300 0 -35 -23 -105 -35 -105 -13 0 -237 113 -341 172 -118
67 -252 156 -272 181 -10 12 -8 19 17 43 47 44 78 54 161 50 60 -3 91 -11 160
-41z m-462 -5 c12 -12 22 -24 22 -28 -1 -68 -89 -95 -120 -36 -32 59 48 110
98 64z m192 -153 l25 -17 -30 4 c-16 3 -66 8 -110 11 -44 4 -82 8 -84 10 -2 3
10 16 27 30 17 14 34 35 37 45 6 18 11 16 59 -22 28 -24 63 -51 76 -61z m-470
23 c-14 -11 -59 -40 -100 -65 l-75 -45 -18 36 c-10 20 -16 38 -13 41 11 11
154 49 193 51 l38 2 -25 -20z m-231 -86 c7 -19 11 -38 8 -40 -7 -7 -46 59 -41
68 10 16 20 7 33 -28z m431 6 c0 -10 13 -21 35 -27 38 -12 43 -9 40 25 -2 22
0 22 74 17 92 -8 194 -28 244 -49 l38 -15 -25 -49 -25 -49 54 -26 c61 -30 65
-28 80 41 3 17 9 32 12 32 17 0 185 -122 229 -166 90 -90 198 -281 246 -434
19 -63 23 -95 22 -205 -1 -152 -15 -203 -95 -353 -103 -194 -208 -306 -384
-409 -83 -49 -78 -50 -114 37 -31 73 -34 78 -56 70 -14 -5 6 20 49 63 107 108
171 209 215 345 30 93 36 135 35 272 0 236 -80 428 -247 593 -87 86 -187 147
-311 189 -83 29 -102 32 -221 32 -107 1 -144 -3 -210 -22 -87 -25 -172 -65
-250 -119 l-50 -34 50 46 c28 25 74 58 103 73 29 15 67 35 85 44 35 19 147 57
188 64 15 3 58 11 95 18 89 16 94 16 94 -4z m-473 -64 c-2 -6 -14 -13 -28 -17
-175 -48 -209 -57 -209 -51 1 8 64 53 140 99 l55 34 22 -28 c13 -15 21 -32 20
-37z m957 -28 c-11 -39 -19 -47 -32 -39 -10 6 -11 13 -1 34 15 34 43 37 33 5z
m-377 -47 c234 -79 396 -240 487 -483 14 -38 21 -68 16 -68 -6 0 -10 6 -10 14
0 8 -13 45 -28 82 -84 208 -256 367 -472 441 -65 22 -93 26 -210 27 -116 1
-145 -2 -204 -22 -216 -73 -369 -203 -465 -397 -47 -97 -70 -184 -81 -319 l-9
-101 4 105 c9 223 84 391 245 551 92 90 223 162 347 190 120 27 263 19 380
-20z m-62 -42 c28 -6 56 -16 63 -22 6 -5 12 -6 12 -3 0 4 37 -12 82 -36 101
-52 216 -160 280 -264 37 -60 79 -165 81 -206 1 -20 5 -34 10 -31 7 4 9 -9 12
-141 9 -328 -209 -623 -525 -711 -103 -30 -272 -25 -378 9 -45 15 -80 31 -77
36 3 6 -1 7 -9 4 -30 -11 -224 135 -209 159 3 6 1 7 -5 3 -27 -17 -147 191
-178 309 -16 64 -28 269 -15 261 5 -3 6 5 4 18 -8 43 28 162 80 261 94 180
299 332 487 360 25 4 47 9 49 11 9 8 186 -4 236 -17z m583 -589 c0 -22 -1 -22
-8 5 -4 17 -8 39 -8 50 0 16 2 15 8 -5 4 -14 8 -36 8 -50z m12 -46 c0 -8 -5
-12 -10 -9 -6 4 -8 11 -5 16 9 14 15 11 15 -7z m-10 -196 c-26 -170 -104 -322
-230 -448 -70 -70 -103 -94 -180 -133 -118 -59 -189 -77 -310 -82 -213 -8
-390 63 -545 220 -85 86 -131 155 -172 256 -35 87 -75 253 -53 219 5 -8 10
-24 10 -34 0 -37 52 -191 83 -246 100 -182 239 -298 433 -365 151 -52 364 -41
511 26 271 124 445 393 455 704 l2 60 3 -54 c2 -29 -1 -85 -7 -123z m-1085
-627 c121 -58 175 -70 320 -76 140 -6 233 14 359 77 50 25 58 27 51 11 -15
-33 -17 -78 -5 -108 13 -34 13 -40 3 -41 -5 0 -42 -4 -83 -8 -123 -12 -174
-13 -256 -4 -156 17 -411 124 -511 215 l-48 44 55 -41 c30 -22 82 -53 115 -69z
m880 -57 c22 -55 65 -134 95 -177 29 -42 51 -80 47 -83 -24 -24 -141 63 -167
125 -6 15 -25 35 -41 45 -36 21 -69 71 -69 105 0 26 63 95 82 89 6 -2 30 -49
53 -104z m-939 27 c42 -26 45 -29 25 -36 -12 -3 -39 -31 -61 -60 -43 -58 -105
-101 -161 -111 l-34 -7 54 54 c58 58 121 148 121 174 0 20 3 20 56 -14z"/>
<path d="M1185 1700 c-32 -5 -35 -16 -21 -78 4 -19 9 -43 11 -55 6 -44 17
-122 20 -139 2 -9 6 -38 10 -65 4 -26 9 -56 11 -65 4 -12 -13 -28 -57 -57 -34
-22 -67 -42 -73 -44 -7 -2 -4 -14 7 -31 l18 -27 33 19 c18 11 44 27 58 36 26
17 26 17 32 -17 6 -31 9 -33 36 -29 30 4 30 5 24 52 l-6 47 83 49 c46 26 114
68 151 91 36 24 69 43 72 43 3 0 24 13 48 29 24 16 59 37 78 48 70 39 100 58
100 65 0 4 -12 20 -26 35 -14 15 -23 23 -21 18 6 -12 -159 -112 -176 -107 -7
2 -9 0 -5 -4 13 -12 -134 -97 -148 -86 -5 4 -6 3 -2 -2 9 -11 -63 -57 -76 -49
-5 4 -6 2 -3 -4 6 -9 -80 -59 -88 -52 -2 2 -6 30 -9 61 -3 31 -8 63 -11 70 -3
8 -7 29 -9 48 -5 45 -28 205 -30 205 0 1 -14 -2 -31 -5z"/>
<path d="M1830 1656 c0 -2 8 -10 18 -17 15 -13 16 -12 3 4 -13 16 -21 21 -21
13z"/>
</g>
</svg>
