<?xml version="1.0" standalone="no"?>
<!DOCTYPE svg PUBLIC "-//W3C//DTD SVG 20010904//EN"
 "http://www.w3.org/TR/2001/REC-SVG-20010904/DTD/svg10.dtd">
<svg version="1.0" xmlns="http://www.w3.org/2000/svg"
 width="500.000000pt" height="500.000000pt" viewBox="0 0 500.000000 500.000000"
 preserveAspectRatio="xMidYMid meet">
<metadata>
Created by potrace 1.11, written by Peter Selinger 2001-2013
</metadata>
<g transform="translate(0.000000,500.000000) scale(0.100000,-0.100000)"
fill="#000000" stroke="none">
<path d="M0 2500 l0 -2500 2500 0 2500 0 0 2500 0 2500 -2500 0 -2500 0 0
-2500z m2865 2341 c239 -38 436 -99 650 -201 639 -303 1116 -885 1283 -1565
53 -215 66 -327 66 -575 0 -248 -13 -360 -66 -575 -206 -840 -882 -1516 -1723
-1723 -215 -53 -327 -66 -575 -66 -248 0 -360 13 -575 66 -840 206 -1516 882
-1723 1723 -53 215 -66 327 -66 575 0 248 13 360 66 575 206 840 882 1516
1723 1723 110 28 284 56 395 66 106 9 429 -4 545 -23z"/>
<path d="M2340 4720 c-718 -50 -1371 -452 -1746 -1073 -151 -248 -245 -509
-295 -812 -30 -184 -30 -486 0 -670 73 -447 256 -831 549 -1155 348 -384 793
-625 1317 -711 184 -30 486 -30 670 0 524 86 969 327 1317 711 293 324 476
708 549 1155 30 184 30 486 0 670 -50 303 -144 564 -295 812 -433 719 -1229
1132 -2066 1073z m273 -157 c61 -42 90 -104 84 -175 -9 -107 -77 -176 -184
-185 -73 -6 -134 23 -178 86 -26 37 -30 51 -30 111 0 60 4 74 30 111 17 23 50
53 75 67 61 32 145 27 203 -15z m-1149 -403 c22 -31 259 -374 526 -763 267
-388 488 -706 492 -707 3 0 21 44 38 98 18 53 41 106 51 116 21 23 71 25 95 6
37 -32 35 -53 -21 -221 l-54 -162 95 -138 c102 -149 114 -183 77 -220 -23 -23
-75 -28 -97 -9 -9 6 -41 50 -73 96 -31 46 -60 81 -64 77 -3 -5 -109 -314 -234
-688 -126 -374 -236 -689 -246 -699 -21 -23 -71 -25 -95 -6 -42 36 -44 28 217
802 137 409 248 751 245 760 -2 9 -252 377 -556 818 -414 601 -552 808 -552
830 -2 50 43 83 96 71 10 -2 37 -30 60 -61z m-701 -1497 c61 -42 90 -104 84
-175 -9 -107 -77 -176 -184 -185 -73 -6 -134 23 -178 86 -26 37 -30 51 -30
111 0 60 4 74 30 111 17 23 50 53 75 67 61 32 145 27 203 -15z m3701 0 c60
-42 89 -104 83 -175 -6 -70 -35 -120 -90 -156 -56 -37 -153 -39 -210 -3 -86
53 -120 167 -77 255 23 49 70 91 117 106 50 17 133 4 177 -27z m-1855 -1846
c60 -40 86 -90 86 -167 0 -51 -5 -73 -24 -103 -34 -56 -88 -88 -158 -94 -73
-6 -134 23 -178 86 -26 37 -30 51 -30 111 0 60 4 74 30 111 44 63 105 92 178
86 39 -4 71 -13 96 -30z"/>
</g>
</svg>
